<?xml version="1.0" encoding="UTF-8" standalone="no"?>
<!DOCTYPE svg PUBLIC "-//W3C//DTD SVG 1.1//EN" "http://www.w3.org/Graphics/SVG/1.1/DTD/svg11.dtd">
<svg width="100%" height="100%" viewBox="0 0 24 24" version="1.1" xmlns="http://www.w3.org/2000/svg" xmlns:xlink="http://www.w3.org/1999/xlink" xml:space="preserve" xmlns:serif="http://www.serif.com/" style="fill-rule:evenodd;clip-rule:evenodd;stroke-linecap:round;">
    <g transform="matrix(0.662728,0,0,0.893666,12.327,-0.151289)">
        <path d="M9.853,6.455C9.853,6.325 9.71,6.219 9.535,6.219L4.352,6.219C4.176,6.219 4.033,6.325 4.033,6.455L4.033,20.739C4.033,20.87 4.176,20.975 4.352,20.975L9.535,20.975C9.71,20.975 9.853,20.87 9.853,20.739L9.853,6.455Z" style="fill:none;stroke:black;stroke-width:2.54px;"/>
    </g>
    <g transform="matrix(0.54061,0,0,0.632982,16.6764,3.39326)">
        <path d="M9.853,6.491C9.853,6.341 9.71,6.219 9.535,6.219L4.352,6.219C4.176,6.219 4.033,6.341 4.033,6.491L4.033,20.703C4.033,20.854 4.176,20.975 4.352,20.975L9.535,20.975C9.71,20.975 9.853,20.854 9.853,20.703L9.853,6.491Z" style="fill:none;stroke:black;stroke-width:3.4px;"/>
    </g>
    <g transform="matrix(2.11877,0,0,1.24981,-1.2785,6.54675)">
        <path d="M11.69,3.492C11.69,3.232 11.566,3.022 11.412,3.022L11.266,3.022C11.113,3.022 10.988,3.232 10.988,3.492L10.988,5.234C10.988,5.494 11.113,5.705 11.266,5.705L11.412,5.705C11.566,5.705 11.69,5.494 11.69,5.234L11.69,3.492Z"/>
    </g>
    <g transform="matrix(0.662728,0,0,0.893666,2.44179,-0.151289)">
        <path d="M9.853,6.455C9.853,6.325 9.71,6.219 9.535,6.219L4.352,6.219C4.176,6.219 4.033,6.325 4.033,6.455L4.033,20.739C4.033,20.87 4.176,20.975 4.352,20.975L9.535,20.975C9.71,20.975 9.853,20.87 9.853,20.739L9.853,6.455Z" style="fill:none;stroke:black;stroke-width:2.54px;"/>
    </g>
    <g transform="matrix(0.54061,0,0,0.632982,-0.211893,3.39326)">
        <path d="M9.853,6.491C9.853,6.341 9.71,6.219 9.535,6.219L4.352,6.219C4.176,6.219 4.033,6.341 4.033,6.491L4.033,20.703C4.033,20.854 4.176,20.975 4.352,20.975L9.535,20.975C9.71,20.975 9.853,20.854 9.853,20.703L9.853,6.491Z" style="fill:none;stroke:black;stroke-width:3.4px;"/>
    </g>
    <g transform="matrix(2.11877,0,0,1.24981,-22.7998,6.54675)">
        <path d="M11.69,3.492C11.69,3.232 11.566,3.022 11.412,3.022L11.266,3.022C11.113,3.022 10.988,3.232 10.988,3.492L10.988,5.234C10.988,5.494 11.113,5.705 11.266,5.705L11.412,5.705C11.566,5.705 11.69,5.494 11.69,5.234L11.69,3.492Z"/>
    </g>
    <g transform="matrix(0.710558,0,0,1.70625,3.30736,-7.84033)">
        <rect x="7.972" y="10.57" width="8.484" height="2.116" style="fill:none;stroke:black;stroke-width:1.53px;"/>
    </g>
</svg>
